<svg xmlns="http://www.w3.org/2000/svg" xmlns:xlink="http://www.w3.org/1999/xlink" width="38" zoomAndPan="magnify" viewBox="0 0 28.5 30.75" height="41" preserveAspectRatio="xMidYMid meet" version="1.0"><defs><clipPath id="3de5467444"><path d="M 0.00390625 0.140625 L 27.304688 0.140625 L 27.304688 29.683594 L 0.00390625 29.683594 Z M 0.00390625 0.140625 " clip-rule="nonzero"/></clipPath><clipPath id="0dd02e2560"><path d="M 0.00390625 29.683594 L 13.65625 0.191406 L 27.304688 29.683594 Z M 0.00390625 29.683594 " clip-rule="nonzero"/></clipPath><clipPath id="f0a76ab746"><path d="M 0.00390625 0.140625 L 27.304688 0.140625 L 27.304688 29.683594 L 0.00390625 29.683594 Z M 0.00390625 0.140625 " clip-rule="nonzero"/></clipPath><clipPath id="c5bd86be09"><path d="M 0.00390625 29.683594 L 13.65625 0.191406 L 27.304688 29.683594 Z M 0.00390625 29.683594 " clip-rule="nonzero"/></clipPath><clipPath id="5be34f2ae0"><rect x="0" width="28" y="0" height="30"/></clipPath><clipPath id="9e8f6efdd2"><path d="M 10.597656 14.730469 L 22.140625 14.730469 L 22.140625 27.648438 L 10.597656 27.648438 Z M 10.597656 14.730469 " clip-rule="nonzero"/></clipPath><clipPath id="b76cae8817"><path d="M 15.140625 15.53125 L 10.820312 24.96875 C 10.550781 25.554688 10.597656 26.238281 10.949219 26.78125 C 11.296875 27.320312 11.894531 27.648438 12.539062 27.648438 L 20.199219 27.648438 C 20.84375 27.648438 21.441406 27.320312 21.792969 26.78125 C 22.140625 26.238281 22.1875 25.554688 21.917969 24.96875 L 17.597656 15.53125 C 17.378906 15.050781 16.898438 14.742188 16.371094 14.742188 C 15.839844 14.742188 15.363281 15.050781 15.140625 15.53125 Z M 15.140625 15.53125 " clip-rule="nonzero"/></clipPath><clipPath id="c3046ce898"><path d="M 0.597656 0.730469 L 12.140625 0.730469 L 12.140625 13.648438 L 0.597656 13.648438 Z M 0.597656 0.730469 " clip-rule="nonzero"/></clipPath><clipPath id="031c430353"><path d="M 5.140625 1.53125 L 0.820312 10.96875 C 0.550781 11.554688 0.597656 12.238281 0.949219 12.78125 C 1.296875 13.320312 1.894531 13.648438 2.539062 13.648438 L 10.199219 13.648438 C 10.84375 13.648438 11.441406 13.320312 11.792969 12.78125 C 12.140625 12.238281 12.1875 11.554688 11.917969 10.96875 L 7.597656 1.53125 C 7.378906 1.050781 6.898438 0.742188 6.371094 0.742188 C 5.839844 0.742188 5.363281 1.050781 5.140625 1.53125 Z M 5.140625 1.53125 " clip-rule="nonzero"/></clipPath><clipPath id="7965189d13"><rect x="0" width="13" y="0" height="14"/></clipPath></defs><g clip-path="url(#3de5467444)"><g clip-path="url(#0dd02e2560)"><g transform="matrix(1, 0, 0, 1, 0, -0.000000000000001499)"><g clip-path="url(#5be34f2ae0)"><g clip-path="url(#f0a76ab746)"><g clip-path="url(#c5bd86be09)"><path fill="#000000" d="M 27.304688 29.683594 L 0.00390625 29.683594 L 0.00390625 0.140625 L 27.304688 0.140625 Z M 27.304688 29.683594 " fill-opacity="1" fill-rule="nonzero"/></g></g></g></g></g></g><g clip-path="url(#9e8f6efdd2)"><g clip-path="url(#b76cae8817)"><g transform="matrix(1, 0, 0, 1, 10, 14)"><g clip-path="url(#7965189d13)"><g clip-path="url(#c3046ce898)"><g clip-path="url(#031c430353)"><path fill="#ffffff" d="M 13.148438 13.648438 L -0.40625 13.648438 L -0.40625 -1.121094 L 13.148438 -1.121094 Z M 13.148438 13.648438 " fill-opacity="1" fill-rule="nonzero"/></g></g></g></g></g></g></svg>